<svg xmlns="http://www.w3.org/2000/svg" width="480" height="480" viewBox="0 0 480 480">
  <defs><linearGradient id="sky" x1="0" y1="0" x2="0" y2="360" gradientUnits="userSpaceOnUse"><stop stop-color="#64a6e1"/><stop offset="1" stop-color="#e0e9e6"/></linearGradient><linearGradient id="glass" x1="0" y1="0" x2="1" y2="1"><stop stop-color="#455b65"/><stop offset=".5" stop-color="#8faeb8"/><stop offset="1" stop-color="#233e47"/></linearGradient><linearGradient id="wall" x1="30" y1="90" x2="400" y2="330" gradientUnits="userSpaceOnUse"><stop stop-color="#fffef3"/><stop offset="1" stop-color="#d4d2bf"/></linearGradient><pattern id="brick" width="33" height="17" patternUnits="userSpaceOnUse"><rect width="33" height="17" fill="#a77350"/><path d="M0 0H33M0 17H33M16 0V8M0 8H33M0 8V17M33 8V17" stroke="#ba9070" stroke-width="1.5"/></pattern></defs>
  <rect width="480" height="480" fill="url(#sky)"/><path d="M0 191L99 93L188 191L273 78L351 163L417 97L480 171V322H0Z" fill="#828a98"/><path d="M97 94L72 137L97 125L118 149L131 138M273 80L242 132L267 118L292 141L304 130M417 98L388 134L412 124L437 144" fill="#d2ccd0"/><path d="M0 245L123 162L256 257L356 159L480 238V340H0Z" fill="#807d6d"/>
  <path d="M47 154L292 60L441 138V464H47Z" fill="url(#wall)"/><path d="M292 60L441 138V464H292Z" fill="#bdbeb2"/><path d="M38 149L292 50L452 134V153L292 83L38 172Z" fill="#fffef5"/>
  <path d="M86 180L265 114V289L86 335Z" fill="#4c5454"/><path d="M97 187L151 167V308L97 322ZM161 163L204 147V295L161 306ZM215 143L253 129V282L215 292Z" fill="url(#glass)"/>
  <path d="M164 163V304M217 143V291" stroke="#312d28" stroke-width="7"/>
  <path d="M54 353L291 302L442 332V353L291 326L54 378Z" fill="#fcfbec"/>
  <path d="M68 368L178 344V480H68Z" fill="url(#brick)"/><path d="M190 341L275 322V480H190Z" fill="#676b63"/><path d="M202 353L261 341V465H202Z" fill="url(#glass)"/>
  <path d="M311 329L421 351V474H311Z" fill="#d3d0ba"/><path d="M329 352L401 367V455H329Z" fill="#50717a"/><path d="M366 360V455" stroke="#e7e5d7" stroke-width="7"/>
  <path d="M325 160L407 198V301L325 278Z" fill="#516c76"/><path d="M365 179V289M325 214L407 247" stroke="#e6e4d7" stroke-width="6"/>
  <path d="M0 480V445L68 434L158 456L193 472L282 440L480 452V480Z" fill="#b6b7a1"/><path d="M287 480L342 437L442 438L477 480Z" fill="#e0ded1"/>
  <g fill="#3f6736"><ellipse cx="38" cy="354" rx="29" ry="63"/><ellipse cx="20" cy="305" rx="31" ry="44"/><ellipse cx="50" cy="295" rx="24" ry="47"/><ellipse cx="451" cy="382" rx="27" ry="54"/><ellipse cx="469" cy="349" rx="28" ry="37"/></g><g fill="#76964b"><ellipse cx="17" cy="275" rx="20" ry="24"/><ellipse cx="55" cy="337" rx="19" ry="33"/><ellipse cx="439" cy="391" rx="19" ry="33"/><ellipse cx="472" cy="324" rx="22" ry="24"/></g><path d="M36 320L32 480M451 381L449 480" stroke="#6b5637" stroke-width="8"/>
  <path d="M89 459L121 448L150 464V480H89Z" fill="#73925b"/>
</svg>
